<svg xmlns="http://www.w3.org/2000/svg" viewBox="0 0 600 400" fill="none">
  <rect width="600" height="400" rx="12" fill="#1a1a1a"/>
  <!-- Terminal-like UI -->
  <rect x="40" y="32" width="520" height="336" rx="8" fill="#111" stroke="#333" stroke-width="1"/>
  <!-- Terminal dots -->
  <circle cx="64" cy="52" r="6" fill="#ff5f56"/>
  <circle cx="84" cy="52" r="6" fill="#ffbd2e"/>
  <circle cx="104" cy="52" r="6" fill="#27c93f"/>
  <!-- Code lines -->
  <rect x="60" y="80" width="120" height="8" rx="4" fill="#E04EC4" opacity="0.6"/>
  <rect x="190" y="80" width="200" height="8" rx="4" fill="#555"/>
  <rect x="60" y="104" width="80" height="8" rx="4" fill="#666"/>
  <rect x="150" y="104" width="160" height="8" rx="4" fill="#E04EC4" opacity="0.4"/>
  <rect x="60" y="128" width="240" height="8" rx="4" fill="#444"/>
  <rect x="60" y="152" width="100" height="8" rx="4" fill="#666"/>
  <rect x="170" y="152" width="180" height="8" rx="4" fill="#555"/>
  <rect x="60" y="192" width="60" height="8" rx="4" fill="#E04EC4" opacity="0.5"/>
  <rect x="130" y="192" width="280" height="8" rx="4" fill="#444"/>
  <rect x="60" y="216" width="200" height="8" rx="4" fill="#555"/>
  <rect x="60" y="240" width="140" height="8" rx="4" fill="#666"/>
  <rect x="210" y="240" width="120" height="8" rx="4" fill="#E04EC4" opacity="0.3"/>
  <rect x="60" y="280" width="320" height="8" rx="4" fill="#444"/>
  <rect x="60" y="304" width="180" height="8" rx="4" fill="#555"/>
  <rect x="60" y="328" width="100" height="8" rx="4" fill="#E04EC4" opacity="0.4"/>
  <rect x="170" y="328" width="250" height="8" rx="4" fill="#444"/>
</svg>
